<svg height="512pt" viewBox="-61 0 512 512" width="512pt" xmlns="http://www.w3.org/2000/svg"><path d="m195 120c-41.355469 0-75 33.644531-75 75s33.644531 75 75 75 75-33.644531 75-75-33.644531-75-75-75zm0 0"/><path d="m195 0c-107.523438 0-195 87.476562-195 195s87.476562 195 195 195 195-87.476562 195-195-87.476562-195-195-195zm0 300c-57.898438 0-105-47.101562-105-105s47.101562-105 105-105 105 47.101562 105 105-47.101562 105-105 105zm0 0"/><path d="m292.753906 462.738281c-14.601562-15.109375-25.25-33.09375-31.445312-52.625-21.207032 6.507813-43.496094 9.886719-66.308594 9.886719s-45.101562-3.378906-66.308594-9.886719c-6.195312 19.53125-16.84375 37.515625-31.445312 52.625l-23.03125 23.835938c-4.1875 4.332031-5.375 10.742187-3.023438 16.285156 2.351563 5.542969 7.789063 9.140625 13.808594 9.140625h220c6.019531 0 11.457031-3.597656 13.808594-9.140625 2.351562-5.542969 1.164062-11.953125-3.019532-16.28125zm-97.753906 19.261719c-8.285156 0-15-6.714844-15-15s6.714844-15 15-15 15 6.714844 15 15-6.714844 15-15 15zm0 0"/></svg>