<svg id="Layer_1" enable-background="new 0 0 512 512" height="512" viewBox="0 0 512 512" width="512" xmlns="http://www.w3.org/2000/svg"><g><path d="m426.358 413.285c-7.255-11.389-16.802-23.437-29.274-34.708-38.911 30.471-87.909 48.661-141.084 48.661s-102.173-18.19-141.084-48.661c-12.471 11.271-22.019 23.319-29.274 34.708-25.897 40.653-28.518 81.142-28.616 82.846-.239 4.123 1.231 8.161 4.065 11.164s6.78 4.705 10.909 4.705h368c4.129 0 8.075-1.702 10.909-4.705s4.305-7.042 4.065-11.164c-.098-1.704-2.718-42.193-28.616-82.846z"/><path d="m256 263.952c36.117 0 65.5-29.308 65.5-65.333s-29.383-65.333-65.5-65.333-65.5 29.309-65.5 65.333 29.383 65.333 65.5 65.333zm0-80.333c8.409 0 14.636 6.873 15 15 .363 8.101-7.154 15-15 15-8.409 0-14.636-6.873-15-15-.363-8.101 7.154-15 15-15z"/><path d="m256 397.238c109.729 0 199-89.1 199-198.619s-89.271-198.619-199-198.619-199 89.1-199 198.619 89.271 198.619 199 198.619zm0-293.952c52.659 0 95.5 42.767 95.5 95.333s-42.841 95.333-95.5 95.333-95.5-42.766-95.5-95.333 42.841-95.333 95.5-95.333z"/></g></svg>